<svg width="120" height="138" viewBox="0 0 120 138" fill="none" xmlns="http://www.w3.org/2000/svg">
<g clip-path="url(#clip0)">
<path d="M60 5L115.426 37V101L60 133L4.57438 101V37L60 5Z" fill="#10345F" stroke="#10345F" stroke-width="8.53333"/>
<path d="M62.8521 77.3792C62.8521 81.5042 61.3625 84.7542 58.3833 87.1292C55.425 89.5042 51.3 90.6917 46.0083 90.6917C41.1333 90.6917 36.8208 89.775 33.0708 87.9417V78.9417C36.1541 80.3167 38.7583 81.2854 40.8833 81.8479C43.0291 82.4104 44.9875 82.6917 46.7583 82.6917C48.8833 82.6917 50.5083 82.2854 51.6333 81.4729C52.7791 80.6604 53.3521 79.4521 53.3521 77.8479C53.3521 76.9521 53.1021 76.1604 52.6021 75.4729C52.1021 74.7646 51.3625 74.0875 50.3833 73.4417C49.425 72.7958 47.4562 71.7646 44.4771 70.3479C41.6854 69.0354 39.5916 67.775 38.1958 66.5667C36.8 65.3583 35.6854 63.9521 34.8521 62.3479C34.0187 60.7437 33.6021 58.8687 33.6021 56.7229C33.6021 52.6812 34.9666 49.5042 37.6958 47.1917C40.4458 44.8792 44.2375 43.7229 49.0708 43.7229C51.4458 43.7229 53.7062 44.0042 55.8521 44.5667C58.0187 45.1292 60.2791 45.9208 62.6333 46.9417L59.5083 54.4729C57.0708 53.4729 55.05 52.775 53.4458 52.3792C51.8625 51.9833 50.3 51.7854 48.7583 51.7854C46.925 51.7854 45.5187 52.2125 44.5396 53.0667C43.5604 53.9208 43.0708 55.0354 43.0708 56.4104C43.0708 57.2646 43.2687 58.0146 43.6646 58.6604C44.0604 59.2854 44.6854 59.9 45.5396 60.5042C46.4146 61.0875 48.4666 62.15 51.6958 63.6917C55.9666 65.7333 58.8937 67.7854 60.4771 69.8479C62.0604 71.8896 62.8521 74.4 62.8521 77.3792ZM66.3521 103.504C64.1646 103.504 62.2583 103.275 60.6333 102.817V94.7542C62.3 95.1708 63.8208 95.3792 65.1958 95.3792C67.3208 95.3792 68.8416 94.7125 69.7583 93.3792C70.675 92.0667 71.1333 90.0042 71.1333 87.1917V44.3792H80.8208V87.1292C80.8208 92.4625 79.6021 96.525 77.1646 99.3167C74.7271 102.108 71.1229 103.504 66.3521 103.504Z" fill="#4DF0FF"/>
</g>
<defs>
<clipPath id="clip0">
<rect width="120" height="138" fill="white"/>
</clipPath>
</defs>
</svg>
